<?xml version="1.0" encoding="UTF-8"?>
<svg width="100" height="120" viewBox="0 0 100 120" fill="none" xmlns="http://www.w3.org/2000/svg">
  <!-- Main Shield Shape with Red Border -->
  <path d="M50 3 C70 3, 87 18, 87 40 C87 50, 87 70, 75 88 C60 105, 50 115, 50 115 C50 115, 40 105, 25 88 C13 70, 13 50, 13 40 C13 18, 30 3, 50 3 Z" fill="#DC2626" stroke="#991B1B" stroke-width="1"/>
  
  <!-- Decorative Red Border with Curls -->
  <path d="M18 15 Q15 12, 18 9 Q21 12, 18 15" fill="#DC2626"/>
  <path d="M82 15 Q85 12, 82 9 Q79 12, 82 15" fill="#DC2626"/>
  <path d="M25 8 Q22 5, 25 2 Q28 5, 25 8" fill="#DC2626"/>
  <path d="M75 8 Q78 5, 75 2 Q72 5, 75 8" fill="#DC2626"/>
  <path d="M35 5 Q32 2, 35 -1 Q38 2, 35 5" fill="#DC2626"/>
  <path d="M65 5 Q68 2, 65 -1 Q62 2, 65 5" fill="#DC2626"/>
  
  <!-- Inner White Border -->
  <path d="M50 10 C67 10, 80 22, 80 42 C80 50, 80 68, 70 84 C58 98, 50 108, 50 108 C50 108, 42 98, 30 84 C20 68, 20 50, 20 42 C20 22, 33 10, 50 10 Z" fill="white" stroke="#E5E7EB" stroke-width="0.5"/>
  
  <!-- Main Shield Interior -->
  <path d="M50 15 C64 15, 75 25, 75 43 C75 50, 75 65, 67 78 C57 90, 50 98, 50 98 C50 98, 43 90, 33 78 C25 65, 25 50, 25 43 C25 25, 36 15, 50 15 Z" fill="#F8F9FA"/>
  
  <!-- Yellow Star at Top -->
  <polygon points="50,20 52.5,26 59,26 54,30.5 56.5,37 50,33 43.5,37 46,30.5 41,26 47.5,26" fill="#FCD34D" stroke="#F59E0B" stroke-width="0.5"/>
  
  <!-- Green Mountains Background -->
  <path d="M25 45 C30 35, 40 32, 50 34 C60 32, 70 35, 75 45 C75 50, 75 70, 75 70 L25 70 C25 70, 25 50, 25 45 Z" fill="#059669"/>
  <path d="M25 50 C30 40, 40 37, 50 39 C60 37, 70 40, 75 50 C75 55, 75 70, 75 70 L25 70 C25 70, 25 55, 25 50 Z" fill="#10B981"/>
  
  <!-- Yellow/Golden Background Behind Temple -->
  <ellipse cx="35" cy="55" rx="8" ry="10" fill="#FCD34D"/>
  <ellipse cx="65" cy="55" rx="8" ry="10" fill="#FCD34D"/>
  <rect x="25" y="50" width="50" height="15" fill="#F59E0B" opacity="0.3"/>
  
  <!-- Borobudur Temple Central Silhouette -->
  <g transform="translate(50,45)">
    <!-- Main Central Tower -->
    <rect x="-2" y="5" width="4" height="20" fill="#1F2937"/>
    <circle cx="0" cy="3" r="2" fill="#1F2937"/>
    <rect x="-1" y="0" width="2" height="8" fill="#F59E0B"/>
    
    <!-- Temple Base Levels -->
    <rect x="-8" y="15" width="16" height="6" fill="#374151"/>
    <rect x="-12" y="18" width="24" height="4" fill="#374151"/>
    <rect x="-15" y="20" width="30" height="3" fill="#374151"/>
    
    <!-- Side Stupas -->
    <circle cx="-6" cy="12" r="1.5" fill="#1F2937"/>
    <circle cx="6" cy="12" r="1.5" fill="#1F2937"/>
    <circle cx="-10" cy="15" r="1.2" fill="#1F2937"/>
    <circle cx="10" cy="15" r="1.2" fill="#1F2937"/>
    <circle cx="-3" cy="10" r="1" fill="#1F2937"/>
    <circle cx="3" cy="10" r="1" fill="#1F2937"/>
  </g>
  
  <!-- Blue Water Waves -->
  <path d="M25 68 Q30 65, 35 68 Q40 71, 45 68 Q50 65, 55 68 Q60 71, 65 68 Q70 65, 75 68 L75 75 L25 75 Z" fill="#2563EB"/>
  <path d="M25 71 Q30 69, 35 71 Q40 73, 45 71 Q50 69, 55 71 Q60 73, 65 71 Q70 69, 75 71 L75 75 L25 75 Z" fill="#60A5FA"/>
  <path d="M25 73.5 Q30 72, 35 73.5 Q40 75, 45 73.5 Q50 72, 55 73.5 Q60 75, 65 73.5 Q70 72, 75 73.5 L75 75 L25 75 Z" fill="white" opacity="0.8"/>
  
  <!-- Left Rice/Wheat Decoration -->
  <g transform="translate(15,50) rotate(-15)">
    <rect x="0" y="0" width="1" height="15" fill="#F59E0B"/>
    <ellipse cx="1" cy="2" rx="0.8" ry="2" fill="#FCD34D"/>
    <ellipse cx="1" cy="5" rx="0.8" ry="2" fill="#FCD34D"/>
    <ellipse cx="1" cy="8" rx="0.8" ry="2" fill="#FCD34D"/>
    <ellipse cx="1" cy="11" rx="0.8" ry="2" fill="#FCD34D"/>
    <ellipse cx="1" cy="14" rx="0.8" ry="2" fill="#FCD34D"/>
  </g>
  
  <!-- Right Cotton/Flower Decoration -->
  <g transform="translate(85,50) rotate(15)">
    <path d="M0 0 Q-2 5, 0 10 Q2 5, 0 0" fill="#22C55E" stroke="#16A34A" stroke-width="0.5"/>
    <circle cx="-1" cy="3" r="1.2" fill="white" stroke="#E5E7EB" stroke-width="0.3"/>
    <circle cx="1" cy="6" r="1.2" fill="white" stroke="#E5E7EB" stroke-width="0.3"/>
    <circle cx="-1" cy="9" r="1.2" fill="white" stroke="#E5E7EB" stroke-width="0.3"/>
    <circle cx="1" cy="12" r="1.2" fill="white" stroke="#E5E7EB" stroke-width="0.3"/>
  </g>
  
  <!-- Yellow Banner "JAWA TENGAH" -->
  <ellipse cx="50" cy="82" rx="25" ry="7" fill="#F59E0B" stroke="#D97706" stroke-width="1"/>
  <text x="50" y="86" text-anchor="middle" font-family="serif" font-size="7" font-weight="bold" fill="white">JAWA TENGAH</text>
  
  <!-- Bottom White Banner -->
  <path d="M20 95 Q25 90, 35 92 Q50 88, 65 92 Q75 90, 80 95 L80 105 Q75 110, 65 108 Q50 112, 35 108 Q25 110, 20 105 Z" fill="white" stroke="#D1D5DB" stroke-width="1"/>
  <text x="50" y="100" text-anchor="middle" font-family="serif" font-size="4.5" font-weight="bold" fill="#1F2937">PRASETYA ULAH SAKTI</text>
  <text x="50" y="106" text-anchor="middle" font-family="serif" font-size="4.5" font-weight="bold" fill="#1F2937">BHAKTI PRAJA</text>
  
  <!-- Side Decorative Scrolls -->
  <g transform="translate(10,45)">
    <path d="M0 0 Q-3 3, 0 6 Q3 3, 0 0" fill="none" stroke="#6B7280" stroke-width="1" fill="none"/>
    <path d="M0 10 Q-3 13, 0 16 Q3 13, 0 10" fill="none" stroke="#6B7280" stroke-width="1"/>
  </g>
  <g transform="translate(90,45)">
    <path d="M0 0 Q3 3, 0 6 Q-3 3, 0 0" fill="none" stroke="#6B7280" stroke-width="1"/>
    <path d="M0 10 Q3 13, 0 16 Q-3 13, 0 10" fill="none" stroke="#6B7280" stroke-width="1"/>
  </g>
</svg>
